<svg xmlns="http://www.w3.org/2000/svg"  viewBox="0 0 80 80" width="80px" height="80px"><path fill="#dcd5f2" d="M27.09,60.98L22.5,67.5c-3.37-0.11-15.54-2.27-20-10c0-16.48,6.49-35.99,9.67-38.9	c6.59-5.24,17.33-6.1,17.33-6.1s1.03,1.84,1.11,3.97c4.09-0.8,7.57-0.97,9.39-0.97c1.84,0,5.37,0.17,9.51,1c0.06-2.15,0.99-4,0.99-4	s10.74,0.86,17.33,6.1c3.18,2.91,9.67,22.42,9.67,38.9c-4.45,7.73-16.63,9.89-20,10l-4.59-6.52C49.38,61.86,45.07,62.5,40,62.5	S30.62,61.86,27.09,60.98z"/><ellipse cx="28.5" cy="43" fill="#fff" rx="6" ry="6.5"/><ellipse cx="51.5" cy="43" fill="#fff" rx="6" ry="6.5"/><path fill="#8b75a1" d="M57.246,68.008l-4.85-6.893l0.818-0.575l4.536,6.447c3.243-0.196,14.917-2.29,19.249-9.623	c-0.036-16.01-6.388-35.549-9.511-38.399c-5.71-4.533-14.794-5.729-16.681-5.933C50.546,13.659,50,15.149,50,16.75h-1	c0-2.341,1.01-4.388,1.053-4.474l0.151-0.302l0.336,0.027c0.444,0.036,10.964,0.936,17.597,6.204C71.487,21.261,78,40.921,78,57.5	v0.134l-0.066,0.116C73.255,65.873,60.639,67.901,57.516,68L57.246,68.008z"/><path fill="#8b75a1" d="M28.5,50c-3.584,0-6.5-3.14-6.5-7s2.916-7,6.5-7s6.5,3.14,6.5,7S32.084,50,28.5,50z M28.5,37	c-3.032,0-5.5,2.691-5.5,6s2.468,6,5.5,6s5.5-2.691,5.5-6S31.532,37,28.5,37z"/><path fill="#8b75a1" d="M51.5,50c-3.584,0-6.5-3.14-6.5-7s2.916-7,6.5-7s6.5,3.14,6.5,7S55.084,50,51.5,50z M51.5,37	c-3.032,0-5.5,2.691-5.5,6s2.468,6,5.5,6s5.5-2.691,5.5-6S54.532,37,51.5,37z"/><path fill="#8b75a1" d="M22.754,68.008L22.484,68c-3.122-0.099-15.738-2.127-20.418-10.25L2,57.634V57.5	c0-16.58,6.514-36.24,9.838-39.272c6.658-5.29,17.178-6.19,17.622-6.226l0.319-0.025l0.156,0.279	c0.049,0.086,1.189,2.141,1.189,4.495h-1c0-1.61-0.626-3.109-0.916-3.719c-1.847,0.199-10.973,1.389-16.724,5.957	C9.389,21.816,3.036,41.354,3,57.365c4.332,7.333,16.007,9.426,19.249,9.623l4.536-6.447l0.818,0.575L22.754,68.008z"/><path fill="#8b75a1" d="M40,63c-16.835,0-25.169-6.826-25.516-7.117l0.643-0.767C15.209,55.186,23.558,62,40,62	s24.791-6.814,24.873-6.883l0.643,0.767C65.169,56.174,56.835,63,40,63z"/><path fill="#8b75a1" d="M62.433,21.924C53.399,16.286,42.161,16,40,16s-13.399,0.286-22.433,5.924l-0.529-0.849	C26.302,15.293,37.791,15,40,15s13.698,0.293,22.962,6.076L62.433,21.924z"/></svg>