<?xml version="1.0" encoding="UTF-8" standalone="no"?>
<svg
   xml:space="preserve"
   stroke-miterlimit="10"
   style="clip-rule:evenodd;fill-rule:nonzero;stroke-linecap:round;stroke-linejoin:round"
   viewBox="0 0 2377 456.35999"
   version="1.1"
   id="svg33"
   sodipodi:docname="swells-2.svg"
   width="2377"
   height="456.35999"
   inkscape:version="1.3.2 (091e20e, 2023-11-25)"
   xmlns:inkscape="http://www.inkscape.org/namespaces/inkscape"
   xmlns:sodipodi="http://sodipodi.sourceforge.net/DTD/sodipodi-0.dtd"
   xmlns="http://www.w3.org/2000/svg"
   xmlns:svg="http://www.w3.org/2000/svg"
   xmlns:vectornator="http://vectornator.io"><sodipodi:namedview
   id="namedview33"
   pagecolor="#ffffff"
   bordercolor="#000000"
   borderopacity="0.25"
   inkscape:showpageshadow="2"
   inkscape:pageopacity="0.0"
   inkscape:pagecheckerboard="0"
   inkscape:deskcolor="#d1d1d1"
   inkscape:zoom="0.098983324"
   inkscape:cx="1192.12"
   inkscape:cy="232.36237"
   inkscape:window-width="1312"
   inkscape:window-height="449"
   inkscape:window-x="0"
   inkscape:window-y="37"
   inkscape:window-maximized="0"
   inkscape:current-layer="svg33" />
  <defs
   id="defs1">
    <filter
   id="a"
   width="2377"
   height="456.35999"
   x="496.90601"
   y="963.93701"
   color-interpolation-filters="sRGB"
   filterUnits="userSpaceOnUse">
      <feGaussianBlur
   in="SourceGraphic"
   result="Blur"
   stdDeviation="1.788"
   id="feGaussianBlur1" />
    </filter>
  </defs>
  <g
   vectornator:layerName="Layer 1"
   id="g33"
   transform="translate(-496.90601,-963.93701)">
    <g
   vectornator:blur="3.577"
   vectornator:layerName="Group 1"
   filter="url(#a)"
   id="g32">
      <path
   fill="#4e4a4a"
   d="m 2468.15,994.368 c 76.09,9.762 153.75,11.102 228.28,29.292 19.72,4.82 36.24,21.19 47.57,38.04 6.74,10.02 8.43,25.74 2.32,36.16 -12.54,21.39 -30.59,42.48 -53.7,51.48 -36.49,14.21 -77.7,9.89 -116.55,14.83 l -12.7,-72.15 c 11.27,15.1 16.82,37.16 33.81,45.28 20.3,9.7 45.32,7.26 67.43,3.1 18.79,-3.54 39.4,-10.58 51.4,-25.47 10.01,-12.42 4.85,-31.55 7.27,-47.32 -36.31,-18.23 -68.95,-47.42 -108.92,-54.7 -43.31,-7.89 -90.07,-3.67 -131.61,10.9 -18.11,6.36 -27.71,28.61 -33.35,46.96 -9.06,29.52 -10.36,61.3 -9.39,92.17 0.5,15.89 4.32,32.86 13.73,45.67 11.26,15.33 27.91,27.01 45.31,34.7 8.51,3.76 20.68,3.57 27.81,-2.41 8.86,-7.43 17.2,-21.15 13.31,-32.05 -13.39,-37.51 -40.91,-68.35 -61.36,-102.53 21,22.54 21,22.54 42.01,45.07 -10.78,-30.19 -10.78,-30.19 -21.56,-60.39 9.1,-7.46 15.8,-19.91 27.31,-22.37 10.52,-2.25 28.48,-0.56 30.7,9.97 11.72,55.8 4.88,113.93 7.32,170.89 -22.61,1.36 -47.06,13.11 -67.83,4.07 -28.23,-12.29 -55.01,-34.89 -67.55,-63.02 -13.13,-29.47 -9.06,-64.92 -3.65,-96.74 4.57,-26.91 21.88,-50.01 32.83,-75.02 l -16.75,0.1 c -8.16,33.3 -22.25,65.69 -24.46,99.9 -2.04,31.47 -1.43,65.28 11.92,93.85 9.79,20.95 30.91,37.72 52.9,44.89 27.33,8.92 57.5,0.35 86.25,0.52 -5.61,10.88 -5.61,10.88 -11.22,21.75 -31.65,-5.55 -65.18,-4.57 -94.96,-16.66 -17.61,-7.15 -31.54,-22.81 -41.73,-38.85 -13.7,-21.57 -25.6,-45.85 -28.19,-71.26 -3.38,-33.25 7.21,-66.46 10.81,-99.69 -19.55,1.13 -40.24,-3.27 -58.64,3.41 -21.9,7.95 -38.7,25.96 -58.05,38.95 45.18,-33.72 45.18,-33.72 90.36,-67.43 -9.78,-1.12 -20.2,-7.06 -29.33,-3.37 -33.53,13.54 -63.29,35.05 -94.46,53.39 -10.35,6.08 -20.03,13.23 -30.05,19.85 37.23,-17.09 37.23,-17.09 74.47,-34.18 -14.83,37.04 -41.15,71.36 -44.47,111.12 -1.97,23.48 15.4,45.45 29.81,64.1 13.36,17.29 34.19,27.23 51.28,40.84 -6.11,14.24 -17.73,27.24 -18.31,42.73 -0.34,9.03 7.01,20.2 15.87,21.97 83.95,16.77 169.21,30.67 254.81,32.1 42.79,0.71 85.16,-12.24 125.77,-25.75 34.99,-11.64 74.47,-21.67 99.15,-49.07 13.62,-15.12 -6.75,-41.85 0,-61.04 13.17,-37.46 54.36,-64.49 58.02,-104.03 2.8,-30.11 -18.82,-60.3 -40.87,-80.99 -18.92,-17.76 -48.87,-17.44 -73.3,-26.16 28.21,17.93 62.69,28.58 84.64,53.8 14.65,16.84 15.33,42.31 18.24,64.45 0.77,5.87 -5.11,10.68 -7.67,16.03 -14.55,-30.37 -22.26,-65.11 -43.66,-91.11 -12.46,-15.15 -35.18,-17.39 -52.77,-26.08 23.87,21.88 55.41,37.61 71.62,65.64 12.84,22.2 17.35,51.54 10.41,76.22 -7.06,25.14 -27.96,45.65 -49,61.11 -27.36,20.12 -61.62,28.58 -92.43,42.86 42.91,-30.18 92.7,-52.41 128.74,-90.54 11.13,-11.78 6.53,-32.8 2.71,-48.55 -4.76,-19.62 -13.4,-39.56 -27.58,-53.94 -35.63,-36.14 -73.48,-72.62 -119.1,-94.85 -35.59,-17.341 -77.49,-18.252 -117.02,-20.208 -31.46,-1.556 -62.66,6.511 -94,9.766 z"
   id="path1" />
      <path
   fill="#f4f3f3"
   d="m 670.652,1146.06 c 3.192,-7.19 2.344,-18.48 9.576,-21.56 59.003,-25.2 119.426,-49.95 182.701,-60.55 11.918,-2 14.365,21.27 25.635,25.63 21.804,8.44 46.171,7.39 69.257,11.08 -0.285,-12.38 4.887,-26.16 -0.855,-37.13 -6.271,-11.98 -18.815,-21.38 -31.781,-25.22 -33.477,-9.91 -69.353,-21.28 -103.679,-14.9 -66.321,12.34 -128.532,41.87 -190.055,69.54 -12.75,5.73 -23.053,17.21 -29.916,29.39 -5.319,9.45 -8.486,21.98 -4.768,32.16 4.08,11.17 15.166,19.14 25.592,24.86 16.015,8.79 33.792,15.12 51.883,17.66 19.967,2.81 40.612,1.67 60.46,-1.87 37.763,-6.75 73.523,-22.84 111.412,-28.84 9.331,-1.48 20.06,1.02 27.508,6.83 5.623,4.39 4.74,13.46 7.11,20.19 -58.137,22.79 -112.21,62.86 -174.411,68.38 -40.544,3.6 -76.259,-28.49 -114.388,-42.73 -2.034,8.54 -10.22,17.87 -6.103,25.63 8.564,16.14 22.627,31.35 39.739,37.76 32.607,12.21 68.939,21.68 103.252,15.78 64.946,-11.17 125.155,-41.52 186.497,-65.6 11.601,-4.55 23.236,-10.75 31.585,-20 4.061,-4.5 1.146,-12.13 2.696,-17.99 1.053,-3.98 6.445,-7.4 5.045,-11.27 -4.127,-11.42 -10.257,-23.26 -20.099,-30.36 -16.786,-12.11 -36.627,-20.45 -56.791,-25.13 -20.321,-4.71 -42.001,-6.27 -62.529,-2.56 -38.805,7.02 -74.18,28.71 -113.212,34.33 -11.267,1.63 -20.908,-9.01 -31.361,-13.51 z"
   id="path2" />
      <path
   fill="#4e4a4a"
   d="m 646.865,1032.21 c 3.751,1.98 7.172,7.07 11.255,5.93 46.151,-12.95 89.005,-36.97 135.833,-47.201 32.228,-7.044 65.967,-6.297 98.883,-4.105 19.128,1.274 37.737,7.646 55.679,14.396 36.97,13.92 76.115,36.87 81.385,79.86 1.02,8.3 -0.18,17.1 -3.28,24.87 -5.56,13.96 -21.32,24.21 -22.24,39.21 -0.59,9.69 14.67,13.6 18.46,22.54 4.68,11.02 9.11,23.81 6.1,35.4 -3.96,15.3 -11.54,32.7 -25.6,39.92 -72.541,37.23 -149.943,64.7 -227.459,89.99 -27.299,8.9 -56.706,9.4 -85.299,12.04 -13.701,1.27 -27.703,1.91 -41.276,-0.35 -2.894,-0.48 -2.119,-6.34 -4.883,-7.32 -13.804,-4.92 -30.018,-3.34 -43.945,1.22 10.376,12.81 10.376,12.81 20.752,25.63 1.831,-5.49 1.831,-5.49 3.662,-10.99 5.291,1.31 11.416,0.78 15.872,3.92 7.023,4.94 10.006,14.42 17.087,19.28 5.749,3.94 13.088,5.16 19.988,6.15 19.776,2.86 39.729,5.79 59.704,5.33 17.112,-0.38 34.179,-10.15 50.923,-6.6 -6.103,3.66 -6.103,3.66 -12.207,7.33 5.667,1.33 11.434,5.71 17.001,4 54.211,-16.62 108.354,-34.44 159.832,-58.21 29.502,-13.63 60.618,-28.51 81.638,-53.29 8.44,-9.94 -4.99,-26.05 -3.34,-38.99 1.78,-14.04 8.95,-26.85 13.42,-40.28 -0.62,20.61 -6.15,41.66 -1.86,61.83 1.6,7.54 10.36,14.48 18.07,14.44 397.08,-2.27 794.05,-14.23 1191.07,-21.34 -9.05,-2.16 -17.85,-6.56 -27.16,-6.49 -389.32,2.78 -778.6,10.02 -1167.91,15.03 l 0.44,-103.04 -38.28,-11.7 c 6,-14.78 14.91,-28.68 18,-44.33 3.26,-16.52 8.73,-35.7 0.73,-50.52 -11.88,-22.03 -34,-37.68 -55.353,-50.73 -21.396,-13.072 -45.941,-21.219 -70.519,-26.179 -25.326,-5.111 -51.648,-5.466 -77.422,-3.675 -65.249,4.535 -126.632,33.734 -187.751,57.024 z"
   id="path3" />
      <path
   fill="#f87147"
   d="m 516.249,1248.27 -7.324,-13.42 -7.549,55.42 c 4.377,1.9 10.632,1.64 13.13,5.7 5.54,9.02 6.045,20.29 9.068,30.43 4.272,-11.6 4.272,-11.6 8.545,-23.19 l 15.869,4.88 -30.518,-61.04 c 16.308,20.09 26.989,46.55 48.925,60.27 27.093,16.94 61.179,18.49 91.769,27.74 -17.779,-8.56 -38.566,-12.6 -53.337,-25.69 -11.021,-9.77 -16.013,-25.2 -20.071,-39.35 -4.044,-14.1 -7.873,-29.76 -3.783,-43.85 2.352,-8.1 13.817,-9.68 20.726,-14.52 -3.256,-2.03 -9.148,-2.31 -9.766,-6.1 -3.352,-20.55 -6.638,-42.3 -1.417,-62.46 4.833,-18.66 13.423,-39.99 30.344,-49.22 59.615,-32.53 124.312,-57.6 190.8,-71.43 40.285,-8.37 84.827,-8.51 123.291,6.11 27.176,10.32 47.911,36.95 59.814,63.47 6.405,14.26 -13.455,30.21 -10.854,45.62 1.77,10.5 14.926,15.18 22.389,22.76 8.84,-22.36 20.4,-43.83 26.52,-67.09 2.16,-8.24 2.22,-18.17 -2.19,-25.46 -11.59,-19.17 -25.19,-38.6 -43.959,-50.84 -22.814,-14.88 -50.057,-22.719 -76.794,-27.913 -28.944,-5.623 -59.02,-7.11 -88.358,-4.168 -34.669,3.475 -69.187,11.281 -101.911,23.241 -58.85,21.52 -120.039,41.14 -171.599,76.75 -16.864,11.64 -21.685,36.76 -22.43,57.24 -0.514,14.16 19.145,23.87 18.968,38.03 -0.14,11.11 -15.52,16.56 -19.782,26.81 -5.391,12.97 -5.677,27.52 -8.516,41.27 z"
   id="path4" />
      <path
   fill="#f4f3f3"
   d="m 2591.44,1002.91 c 38.02,14.65 82.1,18.66 114.04,43.95 15.42,12.21 19.26,38.41 13.92,57.35 -4.39,15.57 -23.02,24.73 -38.44,29.61 -22.5,7.13 -47.14,7.15 -70.64,4.94 -10.43,-0.98 -21.39,-6.12 -28.04,-14.22 -11.75,-14.32 -11.4,-36.8 -24.54,-49.86 -7.98,-7.93 -22.86,-12.24 -32.95,-7.26 -15.49,7.63 -22.09,26.56 -33.13,39.84 l 25.32,42.14 c -8.99,-9.78 -22.64,-16.78 -26.97,-29.34 -4.51,-13.09 1.71,-27.64 2.56,-41.46 -6.12,14.19 -23.08,27.85 -18.37,42.57 11.55,36.1 41.61,63.36 62.41,95.04 -7.07,8.3 -10.36,23.69 -21.19,24.89 -16.64,1.85 -37.95,-3.31 -47.16,-17.29 -18.65,-28.3 -19.02,-65.06 -28.53,-97.59 l -15.36,-0.84 c 5.27,30.12 -0.28,64.36 15.81,90.36 14.02,22.65 44.69,29.01 67.04,43.52 -43.95,-17.7 -43.95,-17.7 -87.89,-35.4 11.35,12.12 18.54,30.45 34.06,36.36 36.31,13.8 76.51,13.48 114.77,20.23 l 11.08,-84.67 c 27.62,-0.76 57.06,7.58 82.87,-2.28 30.94,-11.83 54.72,-37.67 79.41,-59.76 3.1,-2.77 0.86,-8.28 1.29,-12.42 -47.61,21.97 -47.61,21.97 -95.21,43.95 27.68,-13.2 61.09,-18.19 83.04,-39.6 14.88,-14.51 23.83,-39.4 18.56,-59.5 -5.27,-20.11 -26.07,-35.08 -45.37,-42.81 -35.34,-14.18 -74.92,-13.63 -112.39,-20.45 z"
   id="path5" />
      <path
   fill="#d4d4d4"
   d="m 2433.97,1002.91 c -18.21,-1.38 -37.79,-11.184 -54.64,-4.139 -57.67,24.109 -99.57,89.789 -161.89,94.649 -393.87,30.73 -792.64,-32.71 -1185.14,12.26 395.21,-1.7 791.4,22.98 1185.61,-5.11 61.3,-4.37 106.02,-62.27 160.44,-90.81 17.31,-9.07 32.79,-7.44 47.08,4.14 l -24.41,24.41 c 4.88,-10.98 4.88,-10.98 9.76,-21.97 -30.98,15.14 -64.45,26.01 -92.95,45.43 -18.18,12.38 -31.89,30.64 -44.83,48.42 -6.8,9.35 -10.98,20.63 -13.59,31.88 -2.47,10.68 -0.92,21.9 -1.39,32.85 -3.57,-1.17 -3.57,-1.17 -7.15,-2.33 -1.79,4.03 -5.73,7.7 -5.36,12.09 1.2,14.11 10.12,27.17 9.91,41.33 -0.1,6.21 -7.17,10.14 -10.75,15.21 7.01,5.13 7.01,5.13 14.01,10.26 2.24,-6.65 2.72,-14.18 6.72,-19.95 2.02,-2.92 6.59,-2.67 9.88,-4.01 l -20.1,-46.7 7.9,8.86 c 3.94,-20.87 2.85,-43.36 11.82,-62.62 9.81,-21.09 24.85,-40.39 42.93,-55.02 13.08,-10.58 30.64,-14.89 47.2,-17.87 12.49,-2.26 25.33,1.67 38,2.51 -4.14,36.66 -12.14,73.08 -12.41,109.98 -0.09,11.21 5.72,21.96 11.35,31.66 6.55,11.29 16.45,20.28 24.68,30.42 2.87,-2.66 9.03,-4.1 8.6,-7.99 -1.55,-13.95 -11.36,-25.96 -13.89,-39.77 -3.17,-17.34 -2.04,-35.19 -3.06,-52.78 l 24.22,-2 c 2.31,-16.81 2.14,-34.15 6.93,-50.44 3.57,-12.15 8.56,-24.91 17.8,-33.58 13.16,-12.36 29.26,-23.21 46.89,-27.16 31.14,-6.98 63.74,-3.19 95.62,-4.78 -16.76,-4.72 -32.93,-12.721 -50.28,-14.147 -27.17,-2.235 -54.9,8.167 -81.72,3.288 -25.06,-4.554 -44.82,-26.395 -69.89,-30.844 -8.25,-1.463 -13.52,9.896 -20.28,14.845 z"
   id="path6" />
      <path
   fill="#806961"
   d="m 582.167,1233.63 c 4.544,-4.32 7.377,-12.59 13.63,-12.94 14.223,-0.78 28.498,4.24 41.577,9.88 22.502,9.71 40.726,28.84 64.229,35.78 8.436,2.49 16.405,-6.35 24.607,-9.53 -21.864,-1.23 -21.864,-1.23 -43.728,-2.45 l -1.438,-12.2 c 29.62,0.6 59.909,8.08 88.859,1.79 38.209,-8.31 75.37,-23.85 108.463,-44.68 6.871,-4.32 0.785,-16.22 1.177,-24.32 -10.894,-3.68 -21.274,-12.46 -32.681,-11.03 -40.824,5.14 -79.105,23.41 -119.688,30.19 -20.148,3.36 -41.151,3.5 -61.281,0.03 -16.056,-2.77 -32.16,-8.75 -45.278,-18.42 -10.131,-7.46 -18.288,-18.79 -21.672,-30.91 -2.509,-8.98 0.065,-19.8 5.374,-27.47 6.213,-8.99 16.883,-14.24 26.734,-18.96 37.179,-17.81 74.738,-35.26 113.82,-48.39 31.859,-10.7 64.833,-18.87 98.209,-22.82 18.586,-2.2 38.133,-1.12 55.96,4.58 19.85,6.34 41.875,14.1 54.451,30.72 7.913,10.46 -0.967,26.21 -1.451,39.31 -18.839,-4.08 -38.621,-5.08 -56.519,-12.24 -9.291,-3.72 -15.218,-13 -22.826,-19.5 4.574,13.38 13.722,25.99 13.722,40.13 0,7.67 -9.148,12.31 -13.722,18.47 l 73.242,40.28 -28.882,9.88 c 12.688,3.64 24.87,11.39 38.065,10.94 24.679,-0.85 48.4,-9.81 72.6,-14.72 -4.3,-6.64 -5.2,-18.17 -12.91,-19.93 -17.769,-4.05 -36.336,6.23 -54.481,4.55 -7.796,-0.72 -13.664,-7.65 -20.496,-11.47 5.697,-2.04 13.2,-1.47 17.09,-6.11 7.166,-8.53 14.192,-19.38 13.657,-30.51 -1.067,-22.2 -4.596,-46.57 -18.205,-64.14 -11.352,-14.66 -32.272,-19.11 -50.129,-24.09 -18.181,-5.08 -37.543,-7.29 -56.346,-5.64 -29.74,2.62 -59.436,8.62 -87.672,18.32 -50.449,17.33 -101.919,34.47 -147.354,62.41 -13.249,8.15 -18.821,26.1 -21.47,41.43 -3.872,22.4 4.278,45.48 2.529,68.14 -0.703,9.12 -6.51,17.09 -9.766,25.64 z"
   id="path7" />
      <path
   fill="#72554a"
   d="m 950.82,1200.67 c -4.627,5.72 -8.026,12.7 -13.879,17.16 -8.637,6.59 -18.746,11.1 -28.75,15.32 -39.679,16.74 -79.267,33.96 -120.147,47.51 -52.551,17.41 -109.902,23.57 -162.03,0.87 -10.736,-4.67 -21.843,-10.58 -28.969,-19.87 -6.287,-8.2 -4.333,-20.44 -9.011,-29.65 -1.113,-2.19 -4.725,-1.36 -7.087,-2.05 -15.101,32.77 27.653,44.79 48.249,65.23 5.66,5.62 8.524,13.48 12.786,20.22 -9.766,-2.85 -20.897,-2.81 -29.297,-8.54 -9.079,-6.2 -13.835,-17.09 -20.752,-25.64 -3.476,5.58 -3.476,5.58 -6.952,11.15 8.293,7.13 15.246,16.21 24.879,21.39 16.788,9.02 34.478,17.78 53.32,20.64 34.853,5.3 70.672,7.5 105.7,3.52 7.955,-0.9 9.247,-14.14 16.561,-17.39 28.584,-12.73 60.098,-17.82 89.068,-29.64 22.136,-9.04 43.763,-19.73 63.809,-32.76 9.972,-6.48 20.938,-14.1 25.298,-25.16 4.292,-10.89 -1.038,-23.39 -1.557,-35.09 34.664,-5.94 34.664,-5.94 69.331,-11.87 -3.55,-3.38 -5.74,-10.25 -10.63,-10.14 -32.335,0.73 -64.142,8.36 -96.212,12.55 z"
   id="path8" />
      <path
   fill="#4e4a4a"
   d="m 873.503,1114.01 c -7.187,-6.52 -17.22,-10.87 -21.56,-19.54 -2.777,-5.55 1.704,-12.3 2.556,-18.44 l 21.858,-3.54 c -0.814,-2.03 -0.259,-5.9 -2.442,-6.1 -16.186,-1.46 -33.109,-2.98 -48.735,1.49 -49.595,14.18 -97.701,33.46 -145.047,53.93 -6.258,2.71 -9.365,9.92 -14.047,14.87 4.172,6.68 6.404,15.08 12.517,20.04 5.737,4.66 13.722,8.57 20.981,7.18 34.171,-6.56 67.529,-17.53 99.869,-30.37 12.538,-4.98 20.523,-19.17 33.568,-22.61 13.086,-3.45 26.988,2.06 40.482,3.09 z"
   id="path9" />
      <path
   fill="#f4f3f3"
   d="m 2733.05,1034.65 c 25.27,27.47 56.52,50.46 75.82,82.41 12.47,20.64 19.64,46.52 16.5,70.42 -2.3,17.47 -16.78,32.66 -31.36,42.55 -36.88,25 -79.7,39.83 -119.56,59.75 3.79,1.78 7.36,6.57 11.37,5.35 30.98,-9.47 63.69,-17.65 90.13,-36.37 25.85,-18.31 52.5,-41.57 62.44,-71.65 8.66,-26.23 4.02,-59.31 -11.68,-82.04 -22.2,-32.14 -62.44,-46.95 -93.66,-70.42 z"
   id="path10" />
      <path
   fill="#945c4b"
   d="m 704.238,1341.05 c -43.438,-5.75 -89.232,-10.32 -127.644,-31.4 -14.11,-7.75 -27.528,-17.76 -37.561,-30.35 -8.562,-10.74 -13.055,-24.43 -16.668,-37.68 -1.935,-7.1 -2.238,-15.19 0.378,-22.06 5.743,-15.1 22.62,-26 24.024,-42.09 0.977,-11.2 -16.509,-17.46 -17.856,-28.63 -1.845,-15.29 1.482,-31.85 8.931,-45.34 7.483,-13.54 20.322,-24.16 33.734,-31.88 26.333,-15.15 55.889,-23.83 83.834,-35.75 -4.53,-1.25 -9.112,-5.2 -13.59,-3.77 -26.637,8.52 -53.086,18.67 -77.217,32.8 -13.298,7.79 -24.91,19.11 -33.39,31.98 -7.295,11.07 -11.023,24.58 -12.553,37.75 -2.726,23.45 3.049,47.42 -0.066,70.82 -1.339,10.06 -14.149,17.43 -13.026,27.51 1.882,16.89 11.32,32.56 21.253,46.35 9.791,13.6 22.203,26.02 36.792,34.26 26.051,14.72 53.884,27.84 83.252,33.58 18.875,3.69 38.248,-4.07 57.373,-6.1 z"
   id="path11" />
      <path
   fill="#974025"
   d="m 800.673,1378.89 c -45.102,4.61 -89.969,13.96 -135.306,13.83 -18.446,-0.05 -39.356,-2.45 -53.438,-14.37 -8.771,-7.42 -2.674,-22.82 -4.012,-34.23 l -7.439,31.11 c -24.724,-15.73 -55.88,-24.28 -74.173,-47.17 -13.36,-16.72 -9.106,-41.82 -13.659,-62.73 -0.615,20.54 -6.149,41.52 -1.845,61.61 2.689,12.54 13.103,22.3 21.838,31.71 7.924,8.53 16.495,17.82 27.556,21.46 9.299,3.06 19.65,-4.79 29.233,-2.8 23.753,4.96 45.097,18.95 68.972,23.27 26.677,4.83 54.144,4.89 81.238,3.94 13.702,-0.48 27.665,-2.89 40.305,-8.2 8.324,-3.49 13.82,-11.62 20.73,-17.43 z"
   id="path12" />
      <path
   fill="#fd4c15"
   d="m 533.339,1284.9 c 6.104,11.59 6.104,11.59 12.207,23.19 l -16.718,-6.68 c -0.53,10.46 -8.767,23.75 -1.592,31.38 20,21.26 49.642,30.73 74.463,46.1 0.813,-13.02 -1.277,-26.56 2.441,-39.06 1.194,-4.02 7.324,-4.07 10.986,-6.11 z m 396.729,-255.13 c 5.209,15.63 27.095,20.96 33.89,35.97 4.966,10.96 -3.431,24.08 -2.152,36.05 0.357,3.33 7.439,4.13 6.798,7.42 -2.253,11.57 -6.533,23.58 -14.521,32.24 -4.428,4.81 -12.755,2.86 -19.132,4.29 22.689,13.76 38.674,28.85 63.476,12.2 -6.705,-13.08 -14.743,-28.51 -10.986,-42.72 2.143,-8.11 13.089,-15.5 9.766,-23.2 -9.209,-21.31 -27.773,-37.3 -43.345,-54.53 -5.592,-6.18 -15.699,-9.72 -23.794,-7.72 z"
   id="path13" />
      <path
   fill="#806961"
   d="m 2266.74,1226.3 c -4.89,10.99 -4.89,10.99 -9.77,21.97 l -10.98,-1.22 c 2.48,11.17 0.15,24.69 7.46,33.49 16.63,20.03 40.61,32.58 60.91,48.87 0.4,-13.41 6.81,-28.04 1.19,-40.22 -11.13,-24.09 -32.54,-41.93 -48.81,-62.89 z"
   id="path14" />
      <path
   fill="#c9441b"
   d="m 963.027,1231.18 c -40.383,37.04 -87.956,54.9 -139.16,74.47 -11.146,4.26 -46.507,6 -43.946,26.85 27.144,-3 50.142,-17.98 75.605,-27.79 35.157,-13.55 71.027,-25.2 106.129,-38.89 3.511,-1.37 6.307,-4.13 9.46,-6.19 -6.724,-4.26 1.692,-8.72 5.691,-12.48 -3.563,-6.06 -8.95,-10.86 -13.779,-15.97 z"
   id="path15" />
      <path
   fill="#b82b00"
   d="m 563.857,1374.01 c 6.043,6.58 10.012,16.01 18.13,19.76 18.787,8.67 39.474,12.99 59.907,16.23 24.851,3.95 50.221,7.21 75.306,5.23 14.358,-1.13 27.166,-9.58 40.749,-14.37 -33.748,-0.4 -67.865,3.78 -101.244,-1.21 -19.154,-2.87 -34.817,-18.07 -53.786,-21.98 -7.829,-1.62 -15.234,6.85 -23.193,6.1 -6.184,-0.58 -10.579,-6.51 -15.869,-9.76 z"
   id="path16" />
      <path
   fill="#c9441b"
   d="m 621.23,1349.59 c -4.742,4.79 -13.043,7.73 -14.227,14.36 -1.255,7.03 1.546,17.04 8.123,19.82 19.182,8.1 40.901,9.03 61.712,9.67 19.4,0.59 38.612,-4 57.917,-6.01 -23.702,-3.8 -48.43,-3.53 -71.107,-11.4 -8.009,-2.78 -11.189,-12.74 -42.418,-26.44 z"
   id="path17" />
      <path
   fill="#d4d4d4"
   d="m 2829.48,1218.98 -28.07,26.85 9.76,-1.22 c 8.24,18.81 -0.93,33.55 -9.76,50.05 4.27,4.27 4.27,4.27 8.54,8.55 10.39,-17.24 22.96,-33.34 31.16,-51.72 5.47,-12.25 -6.21,-24.19 -11.63,-32.51 z"
   id="path18" />
      <path
   fill="#fd4c15"
   d="m 984.999,1192.12 c -14.519,1.45 -35.15,3.57 -30.517,24.42 0.934,4.2 7.762,2.62 8.545,7.32 2.114,12.69 -0.205,11.33 12.207,21.97 9.249,-7.93 27.666,-43.13 9.765,-53.71 z"
   id="path19" />
      <path
   fill="#d4d4d4"
   d="m 582.167,1249.49 c -7.433,43.45 28.7,56.55 62.816,70.98 -5.814,-9.88 -9.418,-21.45 -17.442,-29.62 -9.48,-9.67 -23.753,-13.46 -33.758,-22.57 -5.441,-4.96 -7.744,-12.52 -11.616,-18.79 z"
   id="path20" />
      <path
   fill="#945c4b"
   d="m 876.357,1104.23 c 1.949,3.9 1.879,5.45 -1.221,8.55 -20.842,-10.43 -45.188,-6.5 -65.918,7.32 5.546,11.09 68.612,12.28 76.905,1.22 5.016,-6.69 0.723,-27.58 -9.766,-17.09 z"
   id="path21" />
      <path
   fill="#f87147"
   d="m 1028.94,1186.02 c -10.41,1.73 -24.62,2.01 -34.175,6.1 -3.877,1.66 -2.941,10.54 -3.662,13.43 -3.662,14.65 15.477,19.68 24.417,25.63 9.45,-9.45 19.31,-28.96 13.42,-45.16 z"
   id="path22" />
      <path
   fill="#f4f3f3"
   d="m 2274.06,1226.3 c -3.05,3.05 -3.05,3.05 -6.1,6.11 12.29,22.01 28.4,49.96 51.87,61.45 13.3,-13.43 10.54,-4.47 25.03,-11.41 -27.98,-13.5 -50.31,-33.04 -70.8,-56.15 z"
   id="path23" />
      <path
   fill="#da6c4a"
   d="m 992.324,1212.87 c -11.597,23.81 -11.597,23.81 -23.194,47.61 l 47.61,-30.52 c -12.21,-8.54 -12.21,-8.54 -24.416,-17.09 z"
   id="path24" />
      <path
   fill="#c9441b"
   d="m 714.003,1245.83 c -14.089,0 -23.186,-2.45 -32.959,7.33 10.402,15.6 50.347,-0.84 62.256,-9.77 -7.045,-7.04 -24.996,-10.46 -29.297,2.44 z"
   id="path25" />
      <path
   fill="#aeacaa"
   d="m 849.501,1077.38 c 7.183,11.07 3.237,11.03 -6.103,20.75 4.166,3.31 15.05,5.89 19.531,4.88 6.765,-1.52 -0.358,-19.67 10.986,-8.54 12.27,-16.08 -8.246,-30.86 -24.414,-17.09 z"
   id="path26" />
      <path
   fill="#d4d4d4"
   d="m 873.915,1074.93 1.221,12.21 c -4.787,0.86 -15.055,2.18 -13.014,6.6 3.841,8.31 10.304,15.13 15.456,22.7 2.702,-5.42 8.639,-10.22 8.107,-16.25 -0.817,-9.25 -7.846,-16.84 -11.77,-25.26 z"
   id="path27" />
      <path
   fill="#a78e87"
   d="m 739.638,1243.39 c -6.557,6.56 -12.388,2.62 -19.531,9.77 8.321,8.32 33.624,-0.67 42.725,-9.77 -7.766,-7.76 -36.415,-13.22 -23.194,0 z"
   id="path28" />
      <path
   fill="#aeacaa"
   d="m 859.267,1178.69 c 2.91,6.35 -1.431,5.72 -6.103,7.33 0.171,4.9 0.481,5.83 -1.221,9.76 9.294,6.83 19.551,-1.05 26.855,-7.32 -4.687,-8.77 -9.782,-17.84 -19.531,-9.77 z"
   id="path29" />
      <path
   fill="#fd4c15"
   d="m 681.044,1239.73 -3.26,16.14 42.323,-11.26 z"
   id="path30" />
      <path
   fill="#7e7d7d"
   d="m 2309.46,1305.65 c 7.21,7.21 0.82,11.8 7.33,18.31 11.9,-5.96 12.58,-37.99 0,-32.96 -4.02,1.61 -4.09,11.41 -7.33,14.65 z"
   id="path31" />
      <path
   fill="#c9441b"
   d="m 526.015,1166.49 c -7.278,7.28 -7.278,20.8 0,28.07 14.41,-14.41 15.789,-12.28 0,-28.07 z"
   id="path32" />
    </g>
  </g>
</svg>
